<svg xmlns="http://www.w3.org/2000/svg" viewBox="0 0 87.08 87.08"><defs><style>.cls-1{fill:#fff;}.cls-2{fill:#0c3556;}</style></defs><title>main logo</title><g id="Layer_2" data-name="Layer 2"><g id="Layer_1-2" data-name="Layer 1"><path class="cls-1" d="M43.54,84.58a41,41,0,1,1,41-41A41.09,41.09,0,0,1,43.54,84.58Zm0-58.85A17.81,17.81,0,1,0,61.35,43.54,17.83,17.83,0,0,0,43.54,25.73Z"/><path class="cls-2" d="M43.54,87.08A43.54,43.54,0,1,1,87.08,43.54,43.59,43.59,0,0,1,43.54,87.08ZM43.54,5A38.54,38.54,0,1,0,82.08,43.54,38.58,38.58,0,0,0,43.54,5Zm0,58.85A20.31,20.31,0,1,1,63.85,43.54,20.33,20.33,0,0,1,43.54,63.85Zm0-35.62A15.31,15.31,0,1,0,58.85,43.54,15.33,15.33,0,0,0,43.54,28.23Z"/></g></g></svg>