<svg xmlns="http://www.w3.org/2000/svg" viewBox="0 0 39.94 57.11"><defs><style>.cls-1{fill:#fff;}.cls-2{fill:#0c3556;}</style></defs><title>part logo</title><g id="Layer_2" data-name="Layer 2"><g id="Layer_1-2" data-name="Layer 1"><path class="cls-1" d="M24.37,51.9,35.62,35.11a12.7,12.7,0,0,0,0-13.11L24.37,5.22c-2.43-3.63-6.37-3.63-8.8,0L4.32,22a12.7,12.7,0,0,0,0,13.11L15.57,51.9C18,55.52,21.94,55.52,24.37,51.9Z"/><path class="cls-2" d="M20,57.11a7.91,7.91,0,0,1-6.47-3.82L2.24,36.51a15.21,15.21,0,0,1,0-15.9L13.5,3.82A7.91,7.91,0,0,1,20,0h0a7.91,7.91,0,0,1,6.47,3.82L37.7,20.61a15.21,15.21,0,0,1,0,15.9L26.44,53.29A7.91,7.91,0,0,1,20,57.11ZM20,5a3,3,0,0,0-2.32,1.61L6.39,23.39a10.21,10.21,0,0,0,0,10.33L17.65,50.51A3,3,0,0,0,20,52.11a3,3,0,0,0,2.32-1.6h0L33.55,33.72a10.21,10.21,0,0,0,0-10.33L22.29,6.61A3,3,0,0,0,20,5Z"/></g></g></svg>