<svg xmlns="http://www.w3.org/2000/svg" viewBox="0 0 32 32"><g data-name="Layer 2"><path d="M28.58,23H3.42A2.42,2.42,0,0,1,1,20.58V12.42A2.42,2.42,0,0,1,3.42,10H7v1a3.94,3.94,0,0,0,7.87,0V10h13.7A2.42,2.42,0,0,1,31,12.42v8.17A2.42,2.42,0,0,1,28.58,23ZM3.42,12a.42.42,0,0,0-.42.42v8.17a.42.42,0,0,0,.42.42H28.58a.42.42,0,0,0,.42-.42V12.42a.42.42,0,0,0-.42-.42H16.78A5.94,5.94,0,0,1,5.09,12Z"/><path d="M10.94,16.88a5.94,5.94,0,1,1,5.93-5.94V11A6,6,0,0,1,10.94,16.88Zm0-9.88a3.94,3.94,0,1,0,3.93,4l1,0h-1A3.94,3.94,0,0,0,10.94,7Z"/><rect width="4.63" height="2" x="21.75" y="13.13" rx="1" ry="1"/><rect width="2" height="4.25" x="5" y="21.75" rx="1" ry="1"/><rect width="2" height="4.25" x="25" y="21.75" rx="1" ry="1"/><rect width="2" height="2" x="9.94" y="9.94" rx="1" ry="1"/></g></svg>