<svg xmlns="http://www.w3.org/2000/svg" id="Layer_1" x="0" y="0" version="1.1" viewBox="0 0 64 65" xml:space="preserve"><circle cx="57.6" cy="39.5" r=".9" fill="none" stroke="#f16723" stroke-linecap="round" stroke-linejoin="round" stroke-miterlimit="10"/><circle cx="7.7" cy="50.6" r=".3" fill="#231f20"/><circle cx="6.1" cy="20.2" r=".3" fill="#231f20"/><circle cx="58.3" cy="16.2" r=".3" fill="#231f20"/><circle cx="22.5" cy="2.3" r=".3" fill="#231f20"/><circle cx="56.3" cy="35.2" r=".3" fill="#231f20"/><circle cx="59" cy="48.3" r=".3" fill="#231f20"/><circle cx="10.1" cy="5" r="1.2" fill="none" stroke="#fbd108" stroke-linecap="round" stroke-linejoin="round" stroke-miterlimit="10"/><path fill="none" stroke="#f16723" stroke-linecap="round" stroke-linejoin="round" stroke-miterlimit="10" d="M5.1 42.4h2M6.1 43.3v-1.9"/><circle cx="56.7" cy="12.5" r=".4" fill="#231f20"/><path fill="none" stroke="#4d9ad4" stroke-linecap="round" stroke-linejoin="round" stroke-miterlimit="10" d="M55.3 53.1h2M56.3 54.1v-2"/><path fill="#fff" d="M52.9 16.9l-.3-.2v-10H17c-2.8 0-5.1 2.3-5.1 5.1v45.9c0 2.3 1.8 4.1 4.1 4.1h33.1c2.3 0 4.1-1.8 4.1-4.1V17l-.3-.1z"/><path fill="#3768a4" d="M53 16.9l-.3-.2v-10H21.9c-2.5 0-4.4 2.3-4.4 5.1v45.9c0 2.3 1.6 4.1 3.5 4.1h28.6c1.9 0 3.5-1.8 3.5-4.1V17l-.1-.1z"/><path fill="#4d9ad4" d="M49.4 16.9l-.3-.2v-10H19c-2.4 0-4.3 2.3-4.3 5.1v45.9c0 2.3 1.5 4.1 3.5 4.1h28c1.9 0 3.5-1.8 3.5-4.1V17l-.3-.1z"/><path fill="#fff" d="M52.6 17v-6.1c0-1-.8-1.8-1.8-1.8H17.2c-2.3 0-4.2 1.9-4.2 4.2v1.8s1.4 1.8 4.6 1.9c3.2.1 35 0 35 0z"/><path fill="none" stroke="#fff" stroke-linecap="round" stroke-miterlimit="10" stroke-width="1.5" d="M16.1 48.3v4.6"/><path fill="none" stroke="#231f20" stroke-linecap="round" stroke-linejoin="round" stroke-miterlimit="10" stroke-width="1.5" d="M11.9 23.7V12.5M11.9 28.6v-3M53.2 41.6v16.3c0 2.3-1.8 4.1-4.1 4.1H16c-2.3 0-4.1-1.8-4.1-4.1V30.5M53.2 17.1v22.4M53.2 17.1H17c-2.8 0-5.1-2.3-5.1-5.1s2.3-5.1 5.1-5.1h35.6v10"/><path fill="none" stroke="#231f20" stroke-linecap="round" stroke-linejoin="round" stroke-miterlimit="10" stroke-width="1.5" d="M52.6 17.1V11c0-1-.8-1.8-1.8-1.8H17.2c-2.3 0-4.2 1.9-4.2 4.2v1.8"/><path fill="none" stroke="#fff" stroke-linecap="round" stroke-miterlimit="10" stroke-width="1.5" d="M19.5 19.6c-1.9 0-3.4 1.5-3.4 3.4M16.1 24.8v.7"/><path fill="#fff" d="M37.7 34.4H26.6c-1.2 0-2.2-1-2.2-2.2v-4.8c0-1.2 1-2.2 2.2-2.2h11.1c1.2 0 2.2 1 2.2 2.2v4.8c.1 1.2-.9 2.2-2.2 2.2z"/><path fill="none" stroke="#231f20" stroke-linecap="round" stroke-linejoin="round" stroke-miterlimit="10" stroke-width="1.5" d="M38.1 34.4h-12c-1 0-1.8-.8-1.8-1.8V27c0-1 .8-1.8 1.8-1.8h12c1 0 1.8.8 1.8 1.8v5.6c.1.9-.8 1.8-1.8 1.8z"/><path fill="none" stroke="#fbd108" stroke-linecap="round" stroke-linejoin="round" stroke-miterlimit="10" d="M45.5 3.3h2M46.5 4.2V2.3"/></svg>