<svg xmlns="http://www.w3.org/2000/svg" id="Layer_1" x="0" y="0" version="1.1" viewBox="0 0 64 65" xml:space="preserve"><circle cx="47.7" cy="9.7" r=".9" fill="none" stroke="#f16723" stroke-linecap="round" stroke-linejoin="round" stroke-miterlimit="10"/><circle cx="38.2" cy="10.3" r=".3" fill="#231f20"/><circle cx=".9" cy="46.5" r=".3" fill="#231f20"/><circle cx="62.8" cy="38.4" r=".3" fill="#231f20"/><circle cx="55.3" cy="8" r=".3" fill="#231f20"/><circle cx="14.5" cy="14.9" r="1.1" fill="none" stroke="#fbd108" stroke-linecap="round" stroke-linejoin="round" stroke-miterlimit="10"/><path fill="none" stroke="#f16723" stroke-linecap="round" stroke-linejoin="round" stroke-miterlimit="10" d="M19.3 6.7h1.9M20.3 7.6V5.7"/><circle cx="6.9" cy="14.5" r=".4" fill="#231f20"/><circle cx="52.4" cy="21.1" r=".4" fill="#231f20"/><path fill="none" stroke="#4d9ad4" stroke-linecap="round" stroke-linejoin="round" stroke-miterlimit="10" d="M4 19.6h1.9M5 20.5v-1.8"/><path fill="none" stroke="#fbd108" stroke-linecap="round" stroke-linejoin="round" stroke-miterlimit="10" d="M53.5 16.7h1.9M54.4 17.7v-1.9"/><g><path fill="#fafdff" d="M30.6 18.1h2.9c4.2 0 7.7 3.1 8.3 7.2h5.1c0-6.3-5.1-11.4-11.4-11.4h-6.8c-6.3 0-11.4 5.1-11.4 11.4h5.1c.5-4 4-7.2 8.2-7.2z"/><path fill="#4d9ad4" d="M30.6 18.1h2.9c3.9 0 7.1 2.6 8.1 6.2h5.3l-.9-3.4c-1-3.8-6.2-6.9-10-6.9l-9.5-.1c-3.8 0-6.9 3.1-6.9 7v3.6h2.9c.9-3.7 4.2-6.4 8.1-6.4z"/><path fill="none" stroke="#231f20" stroke-linecap="round" stroke-linejoin="round" stroke-miterlimit="10" stroke-width="1.5" d="M30.6 18.1h2.9c4.2 0 7.7 3.1 8.3 7.2h5.1c0-6.3-5.1-11.4-11.4-11.4h-6.8c-6.3 0-11.4 5.1-11.4 11.4h5.1c.5-4 4-7.2 8.2-7.2z"/><path fill="#3768a4" d="M58.3 59.3h-3.8V24.4h3.8c1 0 1.7.8 1.7 1.7v31.5c0 .9-.8 1.7-1.7 1.7z"/><path fill="#fafdff" d="M9.3 59.3H6c-1.1 0-1.9-.9-1.9-1.9V26.3c0-1.1.9-1.9 1.9-1.9h3.3v34.9z"/><path fill="#4d9ad4" d="M56.9 59.3H6.5c-.1 0-.1-.1-.1-.1V24.5c0-.1.1-.1.1-.1h50.4c.1 0 .1.1.1.1v34.7s0 .1-.1.1z"/><path fill="none" stroke="#231f20" stroke-linecap="round" stroke-linejoin="round" stroke-miterlimit="10" stroke-width="1.5" d="M36.6 39l21.3-14.6M27.4 39L6.2 24.4M58.3 59.3H5.7c-.9 0-1.7-.8-1.7-1.7V26.1c0-.9.8-1.7 1.7-1.7h52.6c.9 0 1.7.8 1.7 1.7v31.5c0 .9-.8 1.7-1.7 1.7z"/><path fill="#3768a4" d="M32 46.5c-2.4 0-4.4-2-4.4-4.4v-2.8c0-2.4 2-4.4 4.4-4.4 2.4 0 4.4 2 4.4 4.4v2.8c0 2.5-1.9 4.4-4.4 4.4z"/><path fill="#fafdff" d="M31.8 46.5c-2.3 0-4.2-1.9-4.2-4.2v-3.2c0-2.3 1.9-4.2 4.2-4.2.1 0 .2.1.2.2v11.2c0 .1-.1.2-.2.2z"/><path fill="#4d9ad4" d="M31.7 46.5c-1 0-1.7-.8-1.7-1.7v-8.1c0-1 .8-1.7 1.7-1.7 1 0 1.7.8 1.7 1.7v8.1c.1 1-.7 1.7-1.7 1.7z"/><path fill="none" stroke="#231f20" stroke-linecap="round" stroke-linejoin="round" stroke-miterlimit="10" stroke-width="1.5" d="M32 46.5c-2.4 0-4.4-2-4.4-4.4v-2.8c0-2.4 2-4.4 4.4-4.4 2.4 0 4.4 2 4.4 4.4v2.8c0 2.5-1.9 4.4-4.4 4.4z"/><path fill="none" stroke="#fff" stroke-linecap="round" stroke-miterlimit="10" stroke-width="1.5" d="M8.2 51.1v4.4M11.5 27.6c-1.8 0-3.3 1.5-3.3 3.3M8.2 32.6v.8"/></g></svg>