<svg xmlns="http://www.w3.org/2000/svg" id="Layer_1" x="0" y="0" version="1.1" viewBox="0 0 64 65" xml:space="preserve"><circle cx="6.4" cy="37.5" r=".9" fill="none" stroke="#f16723" stroke-linecap="round" stroke-linejoin="round" stroke-miterlimit="10"/><circle cx="58.3" cy="30.3" r=".3" fill="#231f20"/><circle cx="21.2" cy="2.3" r=".3" fill="#231f20"/><circle cx="60.1" cy="48.1" r=".3" fill="#231f20"/><circle cx="59" cy="6.4" r="1.2" fill="none" stroke="#fbd108" stroke-linecap="round" stroke-linejoin="round" stroke-miterlimit="10"/><path fill="none" stroke="#f16723" stroke-linecap="round" stroke-linejoin="round" stroke-miterlimit="10" d="M3.6 49.9h1.9M4.5 50.9V49"/><circle cx="5.5" cy="4.2" r=".4" fill="#231f20"/><circle cx="39.4" cy="4.2" r=".4" fill="#231f20"/><circle cx="3.3" cy="42.4" r=".4" fill="#231f20"/><circle cx="58.7" cy="20.2" r=".4" fill="#231f20"/><path fill="none" stroke="#4d9ad4" stroke-linecap="round" stroke-linejoin="round" stroke-miterlimit="10" d="M59.2 40.5h1.9M60.1 41.5v-1.9"/><path fill="none" stroke="#fbd108" stroke-linecap="round" stroke-linejoin="round" stroke-miterlimit="10" d="M4.3 22.6h1.9M5.3 23.6v-1.9"/><g><path fill="#fff" d="M13.8 62c-2.4 0-4.3-1.9-4.3-4.3V11.3c0-2.4 1.9-4.3 4.3-4.3v55z"/><path fill="#f9ae19" d="M20.6 6.9h3.6v55h-3.6z"/><path fill="#fbd108" d="M12.1 7h8.6v55h-8.6z"/><path fill="#fff" d="M24 7h2.8v55H24z"/><path fill="#3768a4" d="M34.8 6.9H39v55h-4.2z"/><path fill="#4d9ad4" d="M26.7 7h8.7v55h-8.7z"/><path fill="#fff" d="M38.6 7h2.8v55h-2.8z"/><path fill="#cf481f" d="M48.2 61.9v-55c2.9 0 5.3 2.4 5.3 5.3v44.5c-.1 2.8-2.4 5.2-5.3 5.2z"/><path fill="#f16723" d="M41.4 7h8.7v55h-8.7z"/><path fill="none" stroke="#fff" stroke-linecap="round" stroke-miterlimit="10" stroke-width="1.5" d="M17.2 10c-1.9 0-3.4 1.5-3.4 3.4M13.8 15.1v.8M13.8 47.7v4.5M32 10c-1.9 0-3.4 1.5-3.4 3.4M28.6 15.1v.8M28.6 47.7v4.5M46.5 10c-1.9 0-3.4 1.5-3.4 3.4M43.2 15.1v.8M43.2 47.7v4.5"/><path fill="none" stroke="#231f20" stroke-linecap="round" stroke-linejoin="round" stroke-miterlimit="10" stroke-width="1.5" d="M24.2 7h14.6v55H24.2zM53.4 47.3v11.2c0 2-1.6 3.6-3.6 3.6h-11V7h11.1c2 0 3.6 1.6 3.6 3.6v34.7M9.6 43.3V17M9.6 47.7v-2.5"/><path fill="none" stroke="#231f20" stroke-linecap="round" stroke-linejoin="round" stroke-miterlimit="10" stroke-width="1.5" d="M9.6 15.1v-4.6c0-2 1.6-3.6 3.6-3.6h11.1v55H13.1c-2 0-3.6-1.6-3.6-3.6v-8.7"/><path fill="#ffe4b8" d="M20.8 37.3H13c-1.9 0-3.4-1.5-3.4-3.4v-6.7c0-1.9 1.5-3.4 3.4-3.4h7.8c1.9 0 3.4 1.5 3.4 3.4v6.7c0 1.9-1.5 3.4-3.4 3.4zM35.4 37.3h-7.8c-1.9 0-3.4-1.5-3.4-3.4v-6.7c0-1.9 1.5-3.4 3.4-3.4h7.8c1.9 0 3.4 1.5 3.4 3.4v6.7c0 1.9-1.5 3.4-3.4 3.4zM38.8 24h14.6v13.5H38.8z"/><path fill="#fff" d="M9.6 24h2.6v13H9.6zM24.4 24h2.3v13h-2.3zM39 24h2.3v13H39z"/><path fill="#e7d0a8" d="M50.1 24h2.7v13h-2.7zM35.4 24.1h2.7v13h-2.7zM20.7 24.1h2.7v13h-2.7z"/><path fill="none" stroke="#231f20" stroke-linecap="round" stroke-linejoin="round" stroke-miterlimit="10" stroke-width="1.5" d="M9.6 24h14.6v13.5H9.6zM24.2 24h14.6v13.5H24.2zM38.8 24h14.6v13.5H38.8zM12.6 28.3h8.5M12.6 31.3h8.5M27.3 28.3h8.4M27.3 31.3h8.4M41.9 28.3h8.5M41.9 31.3h8.5"/><circle cx="46.1" cy="56.2" r="2" fill="#fff"/><circle cx="46.1" cy="56.2" r="2" fill="none" stroke="#231f20" stroke-linecap="round" stroke-linejoin="round" stroke-miterlimit="10" stroke-width="1.5"/><circle cx="16.9" cy="56.2" r="2" fill="#fff"/><circle cx="16.9" cy="56.2" r="2" fill="none" stroke="#231f20" stroke-linecap="round" stroke-linejoin="round" stroke-miterlimit="10" stroke-width="1.5"/><circle cx="31.5" cy="56.2" r="2" fill="#fff"/><circle cx="31.5" cy="56.2" r="2" fill="none" stroke="#231f20" stroke-linecap="round" stroke-linejoin="round" stroke-miterlimit="10" stroke-width="1.5"/></g></svg>