<svg xmlns="http://www.w3.org/2000/svg" id="Layer_1" x="0" y="0" version="1.1" viewBox="0 0 64 65" xml:space="preserve"><path fill="none" stroke="#f16723" stroke-linecap="round" stroke-linejoin="round" stroke-miterlimit="10" d="M57.7 42.5h1.7M58.5 43.3v-1.7"/><path fill="none" stroke="#4d9ad4" stroke-linecap="round" stroke-linejoin="round" stroke-miterlimit="10" d="M29.7 10.1h1.7M30.6 10.9V9.2"/><circle cx="31.4" cy="19.5" r=".8" fill="none" stroke="#f16723" stroke-linecap="round" stroke-linejoin="round" stroke-miterlimit="10"/><circle cx="27.9" cy="21.1" r=".3" fill="#231f20"/><circle cx="5.3" cy="30.2" r=".3" fill="#231f20"/><circle cx="24.4" cy="40.7" r=".3" fill="#231f20"/><circle cx="57.7" cy="15.9" r=".3" fill="#231f20"/><circle cx="56.8" cy="14.1" r=".3" fill="#231f20"/><circle cx="19" cy="7.1" r="1" fill="none" stroke="#fbd108" stroke-linecap="round" stroke-linejoin="round" stroke-miterlimit="10"/><circle cx="20" cy="38.8" r=".6" fill="none" stroke="#4d9ad4" stroke-linecap="round" stroke-linejoin="round" stroke-miterlimit="10" stroke-width="1.5"/><path fill="#fff" d="M35.8 8.2h19.1v50.6H35.8z"/><path fill="#e7d0a8" d="M38.9 8.2h16v50.6h-16z"/><path fill="#ffe4b8" d="M38.1 8.2h13.8v50.6H38.1z"/><path fill="none" stroke="#231f20" stroke-linecap="round" stroke-linejoin="round" stroke-miterlimit="10" stroke-width="1.5" d="M55 18.4v2.7M35.8 25.7V8.2H55v8.3M55 23v35.8H35.8V27.3"/><path fill="none" stroke="#fff" stroke-linecap="round" stroke-miterlimit="10" stroke-width="1.5" d="M40 36.8v3.9"/><path fill="none" stroke="#231f20" stroke-linecap="round" stroke-linejoin="round" stroke-miterlimit="10" stroke-width="1.5" d="M38 41.4h2M38 28.2h2M38 15.1h2M38 49.2h1M38 51.9h1M38 46.6h1M38 44h1M38 36.1h1M38 38.7h1M38 33.5h1M38 30.9h1M38 23h1M38 25.6h1M38 20.4h1M38 17.7h1"/><path fill="#ffe4b8" d="M30.2 30.6L7.9 8.3v50.6h50.6L32 32.4M17 30l19.7 19.7H17V30z"/><path fill="#e7d0a8" d="M54.4 58.8h4.1L7.9 8.2v4.1z"/><path fill="#fff" d="M10.1 10.4L7.9 8.2v50.6h2.2z"/><path fill="none" stroke="#fff" stroke-linecap="round" stroke-miterlimit="10" stroke-width="1.5" d="M12.8 51.9v3.9"/><path fill="none" stroke="#231f20" stroke-linecap="round" stroke-linejoin="round" stroke-miterlimit="10" stroke-width="1.5" d="M27.6 27.9L7.9 8.2V36m0 5.6v17.2h50.6L28.8 29.1M7.9 37.6V40M17 29.9l19.7 19.7H17V29.9zM10.1 45.7h2.1M10.1 32.6h2.1M10.1 19.5h2.1M10.1 53.6h1M10.1 56.2h1M10.1 51h1M10.1 48.4h1M10.1 40.5h1M10.1 43.1h1M10.1 37.9h1M10.1 35.2h1M10.1 27.3h1M10.1 30h1M10.1 24.7h1M10.1 22.1h1"/></svg>